<svg version="1.1" id="Layer_1" xmlns="http://www.w3.org/2000/svg" xmlns:xlink="http://www.w3.org/1999/xlink" x="0px" y="0px" width="612px" height="276px" viewBox="0 258 612 276" enable-background="new 0 258 612 276" xml:space="preserve">
                      <path d="M86.883,525.806v-22.356h29.808v-10.318H86.883v-16.049h31.528v-10.896H75.992v59.619H86.883z"></path>
                      <path d="M151.084,465.043c-20.635,0-30.38,15.477-30.38,31.528c0,15.477,9.745,30.953,30.38,30.953
                        c20.636,0,30.381-15.477,30.381-30.953C181.465,480.52,171.72,465.043,151.084,465.043z M151.084,474.788
                        c13.757,0,19.489,11.464,19.489,21.208c0,9.749-5.159,20.066-19.489,20.066c-13.757,0-19.49-10.317-19.49-20.066
                        C131.021,486.252,136.753,474.788,151.084,474.788z"></path>
                      <path d="M237.067,524.657l-17.77-20.062c11.465-2.292,14.904-10.317,14.904-18.916c0-10.317-7.452-19.489-21.21-19.489
                        c-9.172,0-18.916,0-28.088,0v59.618h11.465v-20.062h10.892l17.196,20.062h13.185v-1.15H237.067z M212.992,476.507
                        c6.879,0,10.319,4.586,10.319,9.745c0,4.585-2.867,9.744-10.319,9.744h-17.196v-18.914L212.992,476.507z"></path>
                      <path d="M284.072,525.806h12.038l-26.941-59.619H257.13l-26.94,59.619h12.037l5.159-11.468h30.954L284.072,525.806z
                        M274.328,504.021h-22.355l10.891-25.221L274.328,504.021z"></path>
                      <path d="M291.523,466.189h-13.757v0.572l22.927,34.397v24.648h11.47v-24.65l23.502-34.397v-0.573h-13.186l-16.05,24.648
                        L291.523,466.189z"></path>
                      <path d="M388.972,474.215c-6.305-5.731-13.758-9.172-21.783-9.172c-18.34,0-30.953,12.039-30.381,30.953
                        c0,16.054,10.318,30.385,30.381,30.385c8.6,0,16.055-3.44,22.355-9.745v-22.356h-25.221v4.013h20.635v16.623
                        c-5.158,4.586-11.463,6.882-18.342,6.882c-17.193,0-26.365-12.039-26.365-26.369c0-13.758,8.598-26.365,26.365-26.365
                        c6.881,0,13.756,2.292,18.916,7.448L388.972,474.215z"></path>
                      <path d="M423.364,465.043c-20.062,0-29.807,14.331-29.807,30.38c0,15.481,9.744,30.958,29.807,30.958s29.807-14.904,29.807-30.958
                        C453.171,479.946,442.854,465.043,423.364,465.043z M423.364,469.629c17.197,0,25.799,12.612,25.799,26.365
                        c0,13.185-8.598,26.369-25.799,26.369c-16.621,0-25.221-13.185-25.221-26.369C397.571,481.666,406.169,469.629,423.364,469.629z"></path>
                      <path d="M457.757,466.189v59.618h37.834v-4.586h-33.248v-55.03h-4.586V466.189z"></path>
                      <path d="M502.47,470.775h35.539v-4.586h-40.125v59.618h4.586v-26.944h34.395v-4.586H502.47V470.775z"></path>
                      <path d="M264.009,395.109c11.464,10.895,26.368,17.771,43.566,17.771c17.197,0,32.674-6.878,44.137-18.344
                        c7.453-7.452,13.186-16.622,16.055-26.941h-32.102v-30.954h63.053v0.574c0.574,4.012,0.574,7.452,0.574,11.464
                        c0,25.223-10.318,48.151-26.939,64.774c-16.627,16.624-39.557,26.941-64.777,26.941c-16.052,0-30.956-4.013-44.14-11.468
                        L264.009,395.109z"></path>
                      <path d="M358.017,323.457c-1.146-2.293-2.291-4.013-4.008-5.732c-1.725-2.293-3.441-4.012-5.16-6.305
                        c-5.162-5.159-11.467-9.745-18.916-12.612c-6.883-2.866-14.33-4.584-21.783-4.584c-8.026,0-15.476,1.719-21.783,4.584
                        c-6.879,2.867-13.185,7.453-18.916,12.612c-4.013,4.012-6.879,8.024-9.745,13.184c-2.293,4.013-4.013,8.025-5.158,12.037h67.063
                        h2.297v2.293v26.368v2.293h-2.297h-69.358v51.59v4.586c-2.867-2.292-5.159-4.586-7.452-6.878
                        c-16.624-16.627-26.942-39.553-26.942-64.774s10.318-48.15,26.942-64.773c16.623-16.624,39.552-26.942,64.775-26.942
                        c25.221,0,48.15,10.319,64.77,26.942c10.322,10.317,17.771,22.928,22.357,36.686h-2.865h-33.246h-0.576v-0.573H358.017z
                        M360.884,318.299h28.088c-1.719-4.586-4.014-8.599-6.305-12.612c-3.439-5.732-8.025-10.891-12.611-15.477
                        c-8.025-8.026-17.771-14.331-28.662-18.917c-10.316-4.013-21.783-6.879-33.246-6.879c-12.038,0-22.929,2.293-33.248,6.879
                        c-10.891,4.586-20.062,10.891-28.661,18.917c-8.024,8.025-14.33,17.77-18.916,28.661c-4.013,10.318-6.879,21.783-6.879,33.247
                        c0,12.038,2.293,22.929,6.879,33.247c4.586,10.317,10.317,20.063,18.344,27.515v-48.15v-2.293h2.293h69.36v-21.21h-67.64h-2.867
                        l0.574-2.865c1.146-5.732,3.438-11.465,6.305-16.624c2.866-5.159,6.306-9.745,10.318-14.331c5.732-5.731,12.61-10.317,20.062-13.757
                        c7.452-2.866,15.477-4.586,24.076-4.586c8.598,0,16.623,1.72,24.074,4.586c7.453,3.44,14.332,8.026,20.062,13.757
                        c2.297,2.293,4.014,4.586,5.732,6.879C359.165,316.006,359.737,317.151,360.884,318.299L360.884,318.299z"></path>
                    </svg>